<svg width="101" height="101" viewBox="0 0 101 101" fill="none" xmlns="http://www.w3.org/2000/svg">
<path d="M6.27653 6.27653V94.148H94.148V6.27653H6.27653ZM0 0H100.425V100.425H0V0Z" fill="#F47301"/>
<mask id="mask0_1001_208" style="mask-type:alpha" maskUnits="userSpaceOnUse" x="21" y="25" width="55" height="48">
<path d="M54.951 72.1797C54.3652 70.4641 53.7584 68.7695 53.1308 67.0958C52.5031 65.422 51.8964 63.7064 51.3106 61.949H32.9831C32.3973 63.7064 31.801 65.4325 31.1943 67.1271C30.5876 68.8218 29.9913 70.506 29.4055 72.1797H21.1832C22.8151 67.5351 24.3633 63.2462 25.8279 59.3128C27.2924 55.3795 28.7255 51.6555 30.1273 48.1406C31.5291 44.6257 32.9203 41.2783 34.3012 38.0982C35.682 34.918 37.1047 31.7798 38.5692 28.6834H46.0383C47.5028 31.7798 48.9255 34.918 50.3063 38.0982C51.6872 41.2783 53.0785 44.6257 54.4802 48.1406C55.882 51.6555 57.3256 55.3795 58.8111 59.3128C60.2965 63.2462 61.8552 67.5351 63.4871 72.1797H54.951ZM42.1469 37.0939C41.1844 39.3116 40.0861 42.0105 38.8517 45.1906C37.6173 48.3708 36.3306 51.8228 34.9916 55.5469H49.3021C47.9631 51.8228 46.666 48.3498 45.4106 45.1279C44.1553 41.9059 43.0674 39.2279 42.1469 37.0939ZM74.7221 72.1797H67.1275V39.3535H74.7221V72.1797ZM75.538 29.7504C75.538 31.1731 75.0777 32.3028 74.1572 33.1397C73.2366 33.9766 72.1487 34.395 70.8934 34.395C69.5962 34.395 68.4874 33.9766 67.5668 33.1397C66.6463 32.3028 66.186 31.1731 66.186 29.7504C66.186 28.2858 66.6463 27.1352 67.5668 26.2983C68.4874 25.4614 69.5962 25.043 70.8934 25.043C72.1487 25.043 73.2366 25.4614 74.1572 26.2983C75.0777 27.1352 75.538 28.2858 75.538 29.7504Z" fill="white"/>
</mask>
<g mask="url(#mask0_1001_208)">
<path d="M54.951 72.1797C54.3652 70.4641 53.7584 68.7695 53.1308 67.0958C52.5031 65.422 51.8964 63.7064 51.3106 61.949H32.9831C32.3973 63.7064 31.801 65.4325 31.1943 67.1271C30.5876 68.8218 29.9913 70.506 29.4055 72.1797H21.1832C22.8151 67.5351 24.3633 63.2462 25.8279 59.3128C27.2924 55.3795 28.7255 51.6555 30.1273 48.1406C31.5291 44.6257 32.9203 41.2783 34.3012 38.0982C35.682 34.918 37.1047 31.7798 38.5692 28.6834H46.0383C47.5028 31.7798 48.9255 34.918 50.3063 38.0982C51.6872 41.2783 53.0785 44.6257 54.4802 48.1406C55.882 51.6555 57.3256 55.3795 58.8111 59.3128C60.2965 63.2462 61.8552 67.5351 63.4871 72.1797H54.951ZM42.1469 37.0939C41.1844 39.3116 40.0861 42.0105 38.8517 45.1906C37.6173 48.3708 36.3306 51.8228 34.9916 55.5469H49.3021C47.9631 51.8228 46.666 48.3498 45.4106 45.1279C44.1553 41.9059 43.0674 39.2279 42.1469 37.0939ZM74.7221 72.1797H67.1275V39.3535H74.7221V72.1797ZM75.538 29.7504C75.538 31.1731 75.0777 32.3028 74.1572 33.1397C73.2366 33.9766 72.1487 34.395 70.8934 34.395C69.5962 34.395 68.4874 33.9766 67.5668 33.1397C66.6463 32.3028 66.186 31.1731 66.186 29.7504C66.186 28.2858 66.6463 27.1352 67.5668 26.2983C68.4874 25.4614 69.5962 25.043 70.8934 25.043C72.1487 25.043 73.2366 25.4614 74.1572 26.2983C75.0777 27.1352 75.538 28.2858 75.538 29.7504Z" fill="white"/>
<path d="M100.425 0H0V100.425H100.425V0Z" fill="#F47301"/>
</g>
</svg>
