<svg width="127" height="101" viewBox="0 0 127 101" fill="none" xmlns="http://www.w3.org/2000/svg">
<path d="M0 53.4574C0 51.3228 0 49.1881 0 47.0535C0.325374 46.7552 0.562009 46.3657 1.05993 46.2622C5.58065 45.3329 8.12695 42.2049 9.8672 38.2339C11.7307 33.9769 12.4677 29.4537 13.0026 24.8714C13.2639 22.6233 13.0815 20.3654 13.4118 18.1248C13.572 17.0402 13.4463 15.9236 13.3305 14.8144C12.7734 9.45062 14.6344 5.09259 18.8667 1.73779C20.4985 0.443691 22.4483 0.24896 24.3956 0C50.1864 0 75.9772 0 101.768 0C103.033 0.295794 104.41 0.130642 105.581 0.769065C109.579 2.94315 112.022 6.25358 112.678 10.7965C112.919 12.4603 112.759 14.139 112.774 15.8077C112.836 23.0719 113.198 30.3288 115.863 37.2183C117.204 40.6865 119.072 43.78 122.619 45.4784C123.255 45.7815 123.911 46.0083 124.591 46.1587C125.217 46.2967 125.747 46.5654 126.164 47.051C126.164 49.1856 126.164 51.3203 126.164 53.4549C125.823 53.8025 125.525 54.1648 124.985 54.2758C121.179 55.0596 118.759 57.5566 116.992 60.8301C114.889 64.7247 114.095 68.9915 113.435 73.3027C112.981 76.2681 113.028 79.2655 112.744 82.2406C112.626 83.4978 112.747 84.7722 112.845 86.0441C113.277 91.568 111.206 95.9581 106.678 99.1749C105.204 100.222 103.444 100.203 101.77 100.508C75.8983 100.508 50.0237 100.508 24.1516 100.508C22.4902 100.168 20.7721 100.149 19.2882 99.0664C14.7626 95.7708 12.8301 91.2772 13.3157 85.8222C13.5696 82.9703 13.19 80.1726 13.1283 77.3551C13.0716 74.7053 12.6132 72.0579 12.0783 69.4426C11.6001 67.1009 10.9049 64.8356 10.02 62.6196C9.07595 60.2533 7.67339 58.2148 5.79017 56.4992C4.57002 55.3875 3.08858 54.7959 1.54059 54.367C0.912032 54.1994 0.386997 53.975 0 53.4574Z" fill="#564696"/>
<path d="M75.9057 26.0765C79.4528 28.1446 81.4839 31.2751 81.7625 35.3151C82.216 41.9212 79.1619 46.2669 72.8837 48.4163C72.7358 48.4681 72.5953 48.5445 72.3414 48.6604C74.6363 49.109 76.7906 49.602 78.6147 50.9676C79.7979 52.3923 79.6796 52.7768 78.0872 53.7875C76.9854 54.485 75.7973 55.047 74.7817 55.8802C74.4613 56.1439 74.0841 56.3017 73.6478 56.2598C71.4516 54.6403 68.9817 53.7332 66.2776 53.4226C64.4757 53.2156 62.6689 53.3413 60.8646 53.3191C58.8532 53.2969 56.8393 53.292 54.8279 53.324C53.4056 53.3462 53.0951 53.6543 53.0877 55.0939C53.063 59.2818 53.0753 63.4673 53.0827 67.6553C53.0827 68.1902 53.0704 68.7325 53.487 69.154C54.4902 69.6987 55.5871 69.8121 56.6964 69.8392C57.9264 69.8688 59.1564 69.8195 60.3864 69.8639C60.7118 69.8762 61.0988 69.9206 61.1111 70.3495C61.1234 70.7439 60.7882 70.9189 60.4505 70.9484C57.7982 71.1802 55.1484 71.4759 52.4788 71.2023C52.2693 71.1802 52.0524 71.1259 51.9193 70.9731C50.9826 69.8935 50.0681 70.3051 49.0994 70.9435C48.244 71.508 47.3468 72.0034 46.4742 72.5433C46.0478 72.8046 45.678 73.1176 45.4389 73.5687C44.5417 75.272 45.1062 76.2629 47.014 76.2703C52.6736 76.2925 58.3306 76.253 63.9901 76.3023C64.6434 76.3073 65.5357 76.0139 65.7846 77.0739C58.7299 77.0886 51.6753 77.0936 44.6206 77.1281C43.9254 77.1305 43.6296 76.9038 43.6863 76.2136C43.7061 75.9696 43.6888 75.7206 43.6888 75.4766C43.6863 58.6607 43.6839 41.8472 43.6913 25.0313C43.6913 24.5531 43.5508 24.0453 43.8416 23.5918C44.416 23.8284 44.4184 24.351 44.4234 24.8366C44.4727 32.0441 44.4628 39.2492 44.4308 46.4567C44.4283 46.8264 44.3568 47.1888 44.2755 47.4772C44.3543 46.9793 44.6452 46.5824 45.153 46.2767C46.6221 45.3869 48.0666 44.4527 49.5874 43.6516C50.534 43.1537 51.0639 42.4388 51.2168 41.3641C51.3499 40.4348 51.4435 39.4957 51.6703 38.5787C51.7812 38.1325 51.8552 37.6765 52.4394 37.6149C53.1394 37.8984 53.031 38.5393 53.0507 39.0889C53.1074 40.7281 53.0655 42.3698 53.0778 44.009C53.0827 44.8668 53.3687 45.483 54.3349 45.4633C58.0619 45.3918 61.8037 45.7887 65.5135 45.207C67.6038 44.8791 69.6004 44.258 71.0227 42.5128C73.3298 39.6805 72.896 35.1623 70.7688 33.2396C70.4976 32.9956 70.2388 32.7195 70.1599 32.335C70.0983 31.6744 70.436 31.28 70.9931 30.9768C72.4301 30.1954 73.7933 29.2908 75.1884 28.4379C75.7406 28.1002 76.3124 27.8611 75.7332 27.06C75.5212 26.7617 75.5237 26.3476 75.9057 26.0765Z" fill="#F6EFF8"/>
<path d="M65.7847 77.0667C65.2917 76.7783 64.7494 76.8621 64.2219 76.8621C58.4416 76.8572 52.6613 76.8719 46.881 76.8424C46.0404 76.8374 44.8573 77.2713 44.5072 76.1349C44.14 74.9419 44.3051 73.5443 45.2714 72.7037C46.9056 71.2814 48.9294 70.3891 50.7781 69.2577C51.2144 68.9915 51.4535 69.3686 51.6186 69.7162C51.9317 70.3743 52.4173 70.6751 53.1666 70.712C55.6636 70.8328 58.1335 70.4458 60.6206 70.2314C58.4219 70.2314 56.2231 70.2363 54.0269 70.2264C53.5043 70.224 52.9522 70.3349 52.4814 69.9775C52.9719 69.3144 53.699 69.3859 54.3892 69.3834C58.2025 69.3637 62.0158 69.4204 65.8291 69.3588C68.1634 69.3218 70.4139 68.814 72.2996 67.3548C75.0923 65.1955 75.8417 61.3699 74.2962 57.7636C74.0497 57.1893 73.5222 56.652 73.8968 55.9322C74.868 54.7145 76.3199 54.155 77.5992 53.413C78.7084 52.7697 79.263 52.2002 78.6148 50.9678C82.0608 52.9348 83.9391 56.0332 84.4394 59.8342C84.9448 63.682 84.3236 67.4016 81.8636 70.611C79.1817 74.1112 75.472 75.8219 71.2618 76.5934C69.4599 76.9237 67.6359 77.1924 65.7847 77.0667Z" fill="#F0E5F3"/>
<path d="M52.4444 37.6889C52.2151 39.0569 51.9341 40.4201 51.7714 41.798C51.6482 42.848 51.1158 43.5037 50.2284 44.0041C48.8036 44.8052 47.4602 45.7715 45.9862 46.4641C44.7044 47.0656 44.5467 48.2463 43.8417 49.2988C43.8417 40.7282 43.8417 32.1575 43.8417 23.5894C44.1819 23.2369 44.6182 23.4168 45.0027 23.4144C52.1313 23.402 59.2624 23.3453 66.3911 23.4366C69.7582 23.4785 73.0341 24.1267 75.9082 26.0814C75.9649 26.498 76.066 26.9491 76.4283 27.1586C77.6855 27.8932 76.8474 28.1693 76.1819 28.571C74.2617 29.7271 72.3636 30.9127 70.4558 32.0885C69.9899 32.5125 69.5092 32.2561 69.0803 32.0614C67.0517 31.1371 64.8653 31.0409 62.7109 30.9325C60.0956 30.8018 57.4704 30.8807 54.8502 30.9078C53.4279 30.9226 53.1247 31.2431 53.0877 32.6555C53.0557 33.883 53.1148 35.113 53.0507 36.3381C53.0236 36.8508 53.0853 37.435 52.4444 37.6889Z" fill="#FFFEFF"/>
<path d="M73.897 55.9314C75.5435 58.0266 75.9675 60.4496 75.546 62.986C74.9224 66.7402 72.2972 69.0326 68.1659 69.7154C65.2376 70.1985 62.292 70.0358 59.3488 70.0531C57.0589 70.0654 54.7689 70.0062 52.479 69.9766C52.4815 64.6055 52.5012 59.2368 52.4642 53.8657C52.4568 52.9833 52.6269 52.6776 53.5882 52.6924C57.3177 52.754 61.0521 52.6357 64.7816 52.7392C68.1265 52.8354 71.3581 53.4467 73.897 55.9314Z" fill="#564696"/>
<path d="M52.4443 37.6889C52.4566 35.6011 52.4961 33.5158 52.4665 31.428C52.4542 30.6762 52.5947 30.3335 53.4574 30.3582C57.4235 30.4716 61.3946 30.2423 65.3631 30.5135C67.202 30.6392 68.8683 31.1938 70.4533 32.0836C72.7235 33.994 73.5073 36.454 73.0809 39.3306C72.6397 42.2959 70.8698 44.1545 68.1066 45.1503C66.6005 45.6951 65.055 46.0574 63.4503 46.0673C60.1276 46.0895 56.8024 46.0599 53.4796 46.1141C52.6415 46.1289 52.464 45.843 52.4739 45.069C52.501 42.609 52.4591 40.149 52.4443 37.6889Z" fill="#584596"/>
</svg>
