<svg width="69" height="102" viewBox="0 0 69 102" fill="none" xmlns="http://www.w3.org/2000/svg">
<path d="M34.5487 51.9351C34.5041 52.0663 34.5155 52.2027 34.5155 52.3374C34.5151 57.3613 34.5151 62.3855 34.5138 67.4093C34.5138 67.495 34.5394 67.5859 34.4842 67.6659C34.4241 67.7292 34.3486 67.7487 34.2634 67.7491C34.1688 67.7495 34.0738 67.7511 33.9792 67.7511C28.4865 67.7511 22.9934 67.7511 17.5007 67.7511C17.3656 67.7511 17.23 67.7528 17.0956 67.745C16.7408 67.646 16.3743 67.6927 16.0138 67.6626C15.6497 67.6326 15.2888 67.5806 14.9287 67.5238C11.9427 67.0542 9.27572 65.8583 6.92252 63.9678C4.77472 62.2422 3.15424 60.1062 2.03224 57.5918C1.40263 56.1816 0.986144 54.7085 0.767346 53.181C0.701585 52.7206 0.699555 52.253 0.689001 51.7874C0.687377 51.7082 0.712139 51.6258 0.669922 51.5495C0.669922 51.0084 0.669922 50.4673 0.669922 49.9258C0.722287 49.694 0.699555 49.4561 0.703614 49.2231C0.72107 48.1725 0.93865 47.1581 1.21712 46.1538C1.90112 43.689 3.10065 41.4982 4.77391 39.57C6.15287 37.9808 7.78513 36.7033 9.64065 35.7092C11.4495 34.7398 13.3797 34.1548 15.4053 33.8687C15.7573 33.8187 16.1153 33.8078 16.4709 33.7952C16.654 33.7887 16.835 33.7842 17.012 33.7315C17.1273 33.7241 17.2422 33.725 17.3575 33.725C22.9232 33.7246 28.489 33.7246 34.0543 33.7258C34.1948 33.7258 34.3393 33.7043 34.4749 33.7664C34.5142 33.7842 34.5427 33.8139 34.5654 33.8496C34.634 33.9904 34.6068 34.1419 34.6068 34.2884C34.6084 38.4577 34.6076 42.6271 34.6088 46.7964C34.6092 47.4987 34.6064 48.2014 34.5816 48.9032C34.5743 49.1066 34.5853 49.3084 34.636 49.506C34.582 50.2026 34.6173 50.9008 34.6064 51.5982C34.604 51.7119 34.673 51.841 34.5487 51.9351Z" fill="#765EA5"/>
<path d="M34.52 0C40.3918 0 46.2636 0 52.1355 0C52.3811 0.0531773 52.6323 0.0288213 52.8787 0.0336925C54.3795 0.0637316 55.8059 0.443686 57.2056 0.939737C58.8042 1.50642 60.2765 2.31626 61.6299 3.33881C63.9031 5.05631 65.6336 7.21507 66.84 9.79315C67.5472 11.3044 68.0099 12.8912 68.2348 14.5438C68.3067 15.0715 68.3103 15.6069 68.3115 16.1407C68.3115 16.213 68.2888 16.2889 68.3306 16.3583C68.3306 16.7371 68.3306 17.1162 68.3306 17.4949C68.2774 17.788 68.3034 18.086 68.2969 18.3799C68.2726 19.4775 68.0444 20.5386 67.7481 21.5867C67.1997 23.5251 66.3286 25.3112 65.1339 26.9329C64.0025 28.4685 62.6593 29.7915 61.0879 30.8798C59.6992 31.8414 58.2013 32.5835 56.5963 33.1027C55.4097 33.4863 54.1928 33.74 52.9465 33.8252C52.6652 33.8443 52.3827 33.8825 52.0989 33.8731C51.9098 33.878 51.7198 33.8573 51.5327 33.8995C51.4576 33.8999 51.3821 33.9007 51.307 33.8999C51.052 33.85 50.7943 33.8825 50.5377 33.8736C45.3397 33.9275 40.1418 33.8882 34.9438 33.8983C34.7993 33.8987 34.643 33.9369 34.5171 33.822C34.4701 33.7672 34.4603 33.7014 34.4603 33.632C34.4603 33.5711 34.4595 33.5102 34.4595 33.4494C34.4595 22.4234 34.4595 11.3974 34.4611 0.371835C34.4607 0.245996 34.4226 0.11082 34.52 0Z" fill="#ED7164"/>
<path d="M34.4772 33.8094C34.396 33.8106 34.3148 33.8135 34.2341 33.8135C28.7288 33.8135 23.2235 33.8135 17.7182 33.8139C17.4613 33.8139 17.2043 33.8151 16.9474 33.8155C16.4229 33.8269 15.8997 33.8293 15.3764 33.7627C14.3941 33.6377 13.4308 33.4246 12.4886 33.1274C11.4937 32.8141 10.5332 32.4126 9.61256 31.9182C8.65659 31.4047 7.74932 30.8161 6.91026 30.1284C5.17043 28.702 3.74113 27.0161 2.66297 25.0347C1.73217 23.3245 1.12327 21.5072 0.808263 19.5896C0.705156 18.9616 0.697037 18.3263 0.688512 17.6918C0.687701 17.6256 0.710027 17.5566 0.669434 17.4941C0.669434 17.1016 0.669434 16.7095 0.669434 16.3169C0.722611 16.0372 0.697443 15.7527 0.703126 15.4722C0.727482 14.3331 0.968607 13.2334 1.27996 12.1468C1.77398 10.4223 2.54282 8.82459 3.55156 7.34375C4.76449 5.56292 6.26848 4.07355 8.04687 2.85574C9.66046 1.7512 11.4202 0.972211 13.3033 0.466418C13.9755 0.285777 14.6599 0.142889 15.3529 0.0750977C15.8217 0.0292272 16.2954 0.00852461 16.7688 0.0202967C16.8016 0.0211086 16.8366 0.0263857 16.8646 0.000405934C22.736 0 28.6078 0 34.4797 0C34.5178 0.0702265 34.4991 0.146136 34.4991 0.219204C34.5 11.3434 34.5 22.4676 34.4991 33.5918C34.4987 33.6641 34.5198 33.7404 34.4772 33.8094Z" fill="#E95026"/>
<path d="M17.0286 67.6615C17.1366 67.6627 17.245 67.6651 17.353 67.6651C23.0637 67.6655 28.7739 67.6655 34.4846 67.6655C34.4887 67.7463 34.4968 67.8271 34.4968 67.9075C34.4972 73.4062 34.4923 78.9054 34.4992 84.4042C34.5037 88.0381 33.4897 91.3522 31.3922 94.3208C29.6041 96.8517 27.2797 98.743 24.4532 100.015C23.1964 100.581 21.8869 100.979 20.5319 101.216C19.8556 101.334 19.1732 101.435 18.4823 101.439C18.3893 101.439 18.2919 101.427 18.2042 101.475C17.7849 101.475 17.3656 101.475 16.9458 101.475C16.6528 101.422 16.3552 101.449 16.0605 101.441C15.0664 101.412 14.1031 101.217 13.1479 100.962C11.7284 100.582 10.3855 100.016 9.11213 99.2865C8.11759 98.717 7.19044 98.0488 6.33432 97.2869C4.00223 95.2118 2.35617 92.6865 1.39614 89.7166C1.07951 88.7367 0.842444 87.7365 0.742584 86.7103C0.697525 86.2475 0.680882 85.7807 0.689813 85.3143C0.690624 85.2753 0.700773 85.2327 0.669922 85.1982C0.669922 84.7651 0.669922 84.3323 0.669922 83.8992C0.721475 83.6329 0.698743 83.3622 0.70402 83.0951C0.728376 81.8793 1.00076 80.711 1.35108 79.5578C1.80775 78.0538 2.46821 76.6419 3.32919 75.3263C3.92307 74.419 4.59246 73.5727 5.34628 72.7904C6.54784 71.5438 7.90366 70.5018 9.41698 69.6643C10.7501 68.9268 12.1611 68.3873 13.6448 68.0382C14.4481 67.849 15.258 67.6846 16.0836 67.6586C16.3962 67.6493 16.714 67.605 17.0286 67.6615Z" fill="#4CB37D"/>
<path d="M51.3252 33.8169C51.391 33.8169 51.4567 33.8169 51.5225 33.8169C51.7157 33.8494 51.9102 33.8226 52.1038 33.8311C53.9894 33.7556 55.7698 34.2322 57.5141 34.8796C59.2872 35.5376 60.8801 36.5086 62.3305 37.7163C63.9108 39.0319 65.1964 40.5972 66.2108 42.3829C67.2122 44.1455 67.8686 46.0327 68.1922 48.0347C68.2916 48.6493 68.3009 49.2704 68.3115 49.8911C68.3127 49.9702 68.2884 50.0526 68.3306 50.1285C68.3306 50.5345 68.3306 50.9404 68.3306 51.3463C68.2583 51.637 68.2827 51.9361 68.2575 52.2309C68.1248 53.7836 67.7769 55.2867 67.2252 56.7408C66.5234 58.5902 65.5236 60.2659 64.2302 61.7642C62.5732 63.6839 60.585 65.1598 58.272 66.1966C56.9965 66.7686 55.6671 67.1725 54.2897 67.4071C52.7975 67.6616 51.2939 67.7258 49.7871 67.5739C46.4731 67.2403 43.4915 66.0553 40.8931 63.9713C37.7585 61.4573 35.7463 58.2285 34.8804 54.295C34.7091 53.5165 34.5938 52.7306 34.5488 51.9345C34.5021 51.1316 34.4993 50.3291 34.5508 49.5269C34.5281 48.8084 34.6032 48.0997 34.7453 47.3958C35.2015 45.1392 36.0824 43.0608 37.3757 41.1594C37.8815 40.4158 38.451 39.7216 39.068 39.0636C40.4916 37.5462 42.1466 36.3479 44.0087 35.4354C45.5366 34.6868 47.149 34.1948 48.8311 33.9346C49.4133 33.8445 50.001 33.8465 50.5876 33.8315C50.834 33.8234 51.08 33.849 51.3252 33.8169Z" fill="#46B7E9"/>
<path d="M34.4774 33.8094C34.4782 29.392 34.4794 24.9747 34.4794 20.5577C34.4798 13.7051 34.4794 6.85257 34.4794 0C34.4928 0 34.5066 0 34.52 0C34.52 11.1486 34.52 22.2971 34.52 33.4461C34.52 33.5679 34.5184 33.6897 34.5176 33.8114C34.5318 33.8346 34.5216 33.8001 34.5269 33.8269C34.5285 33.8346 34.5212 33.8366 34.5046 33.8338C34.4912 33.8309 34.4819 33.8228 34.4774 33.8094Z" fill="#BD4D39"/>
<path d="M50.5474 33.8445C50.547 33.836 50.5478 33.8274 50.5502 33.8193C50.8081 33.8185 51.0664 33.8177 51.3243 33.8169C51.0668 33.868 50.8073 33.8611 50.5474 33.8445Z" fill="#2A6C8D"/>
<path d="M52.1417 33.8164C52.1408 33.8261 52.1413 33.8355 52.1433 33.8452C51.9353 33.8602 51.7276 33.8659 51.5229 33.8172C51.7289 33.8168 51.9353 33.8168 52.1417 33.8164Z" fill="#2A6C8D"/>
</svg>
