<svg width="142" height="128" viewBox="0 0 142 128" fill="none" xmlns="http://www.w3.org/2000/svg">
<path d="M69.0572 0C69.8324 0.210398 70.6297 0.12181 71.4048 0.188252C75.5866 0.545219 79.692 1.52304 83.5857 3.08952C89.4638 5.42307 94.7346 9.06192 99.0001 13.7312C103.976 19.1573 107.327 25.4544 109.055 32.6227C110.047 36.7638 110.409 41.0307 110.129 45.2798C109.694 52.1378 107.592 58.786 104.005 64.6474C101.915 68.0835 99.3461 71.2044 96.3757 73.916C92.2365 77.712 87.3795 80.6413 82.0908 82.5312C81.3932 82.7748 80.7066 83.0074 79.9425 82.8302C79.1784 82.653 78.5805 82.0883 78.4697 81.3131C78.3036 80.2279 78.4254 79.1427 78.4254 78.0464C78.4254 74.9126 78.4919 71.7788 78.4365 68.645C78.4033 66.3306 77.905 64.1159 76.4544 62.2112C76.2329 61.9233 75.9782 61.6576 75.6792 61.3143L77.8164 60.9932C80.6291 60.5391 83.3643 59.8083 85.889 58.4684C89.9862 56.2869 92.5996 52.9316 93.8952 48.5132C94.9157 45.0719 95.2321 41.4601 94.8254 37.8937C94.4676 34.6662 93.104 31.633 90.9275 29.2231C90.7614 29.0349 90.6064 28.8688 90.7171 28.5476C91.8577 25.1923 91.6583 21.8481 90.5399 18.5371C90.1745 17.463 90.1634 17.463 89.0561 17.4851C86.8967 17.5073 84.9588 18.3157 83.0542 19.2126C81.5915 19.9138 80.1879 20.7322 78.8573 21.6599C78.7451 21.7491 78.6125 21.8089 78.4713 21.8341C78.3302 21.8592 78.1851 21.8488 78.0489 21.8038C74.2213 20.777 70.2593 20.3401 66.2999 20.5082C63.3728 20.6018 60.4667 21.0367 57.6404 21.8038C57.5141 21.8516 57.3777 21.8665 57.244 21.8471C57.1104 21.8277 56.9839 21.7748 56.8763 21.6931C54.6727 20.2425 52.3915 18.9469 49.8667 18.1053C48.6265 17.6845 47.353 17.4187 46.0242 17.4851C45.7031 17.4962 45.4816 17.5627 45.3598 17.917C44.1417 21.1505 43.7763 24.4504 44.7397 27.8168C44.9612 28.5809 44.8836 29.057 44.3743 29.6882C41.8606 32.7777 40.6978 36.3545 40.7089 40.3299C40.72 43.807 41.1297 47.1955 42.4696 50.4401C44.1085 54.4044 46.9433 57.2171 50.8301 58.9778C53.5985 60.2401 56.533 60.8935 59.545 61.2257C59.6558 61.2368 59.7887 61.1925 59.844 61.3143C59.8994 61.4361 59.7776 61.5136 59.7001 61.58C58.4266 62.9421 57.729 64.581 57.4411 66.397C57.3746 66.8178 57.1974 67.0282 56.8099 67.1722C54.9827 67.8698 53.1224 68.2242 51.1734 67.9252C48.5379 67.5266 46.6443 66.0095 45.2491 63.8058C44.1085 62.0119 42.7575 60.4395 40.7532 59.5425C39.6583 59.0387 38.4259 58.9178 37.254 59.1992C36.4124 59.3986 36.2684 59.8858 36.7778 60.5724C37.1091 61.0155 37.5321 61.3819 38.018 61.6465C39.6016 62.4992 40.565 63.9055 41.473 65.3561C42.078 66.3466 42.6038 67.3834 43.0454 68.4567C44.1639 71.0258 46.2346 72.4321 48.8923 73.0412C51.0295 73.5506 53.1999 73.4952 55.3703 73.2073C55.8465 73.1519 56.3226 73.0855 56.7877 72.9969C57.0203 72.9526 57.1199 72.9858 57.1199 73.2516C57.131 75.7985 57.1753 78.3454 57.1531 80.8923C57.1421 82.5644 55.6804 83.2621 54.0083 82.7084C49.6893 81.2592 45.6405 79.1039 42.0267 76.33C36.5329 72.1857 32.141 66.7557 29.2367 60.517C27.5203 56.8682 26.3452 52.9885 25.7485 49.0005C25.2748 45.9239 25.1374 42.805 25.3388 39.6987C25.6319 35.2327 26.6297 30.8413 28.2955 26.6873C30.0407 22.3225 32.5034 18.2803 35.5819 14.7278C39.7451 9.89239 44.9511 6.06453 50.808 3.53247C54.2673 2.02728 57.9139 0.995516 61.649 0.465091C62.9889 0.265767 64.351 0.0996674 65.713 0.0885939C65.9455 0.0885939 66.1892 0.143956 66.3996 0H69.0572Z" fill="#171312"/>
<path d="M14.5863 127.988C13.7115 127.756 12.8146 127.745 11.9398 127.567C5.94896 126.371 2.35006 122.717 0.866202 116.881C-0.0639765 113.216 -0.15257 109.495 0.168563 105.741C0.390034 103.051 0.888346 100.426 1.98463 97.9345C3.96679 93.3722 7.47711 90.7478 12.3606 90.0169C16.4145 89.3795 20.5593 89.648 24.4972 90.8032C25.0214 90.9656 25.5264 91.1846 26.0032 91.4565C26.2911 91.6115 26.3907 91.833 26.3132 92.1431C25.8703 94.0034 25.4384 95.8638 24.9844 97.7131C24.8737 98.1892 24.5082 98.156 24.1539 98.0342C22.6592 97.5108 21.0961 97.2086 19.5141 97.1372C17.3104 97.0376 15.0957 96.9268 12.9807 97.8127C10.8656 98.6986 9.45928 100.515 8.71736 102.74C7.97543 104.966 7.89791 106.959 7.90898 109.119C7.92005 111.278 8.11937 113.67 8.92774 115.84C10.1015 118.996 12.427 120.646 15.7712 120.68C17.0264 120.706 18.2817 120.631 19.5251 120.458C19.8906 120.403 20.0456 120.27 20.0345 119.86C20.0124 117.756 20.0235 115.652 20.0345 113.548C20.0456 113.15 19.9681 113.017 19.5362 113.028C18.2406 113.061 16.945 113.039 15.6605 113.039C14.9739 113.028 14.8189 112.873 14.8189 112.175V107.026C14.8189 106.262 14.9296 106.162 15.6715 106.162H27.0109C27.7085 106.162 27.786 106.24 27.786 106.915C27.7971 112.817 27.786 118.72 27.8082 124.633C27.8082 125.054 27.6421 125.297 27.2766 125.497C24.8958 126.859 22.3267 127.612 19.6027 127.9C19.4698 127.911 19.3369 127.888 19.2372 127.999L14.5863 127.988Z" fill="#171312"/>
<path d="M141.678 112.862C141.667 110.935 141.368 109.052 140.67 107.247C139.618 104.512 137.724 102.685 134.79 102.098C131.855 101.511 129.109 101.976 126.485 103.305C126.053 103.516 125.986 103.493 125.986 103.006C125.997 99.3076 125.986 95.5979 125.986 91.8883C125.986 91.2239 125.876 91.1021 125.222 91.1021H118.977C118.335 91.1021 118.224 91.2128 118.224 91.844V126.537C118.224 127.146 118.39 127.313 119.021 127.313H122.399C123.949 127.313 123.871 127.468 124.093 125.807C124.148 125.386 124.281 125.441 124.525 125.64C125.665 126.515 126.95 127.069 128.334 127.468C129.153 127.711 130.017 127.778 130.848 127.977H133.616C133.727 127.833 133.882 127.888 134.026 127.866C136.805 127.523 138.887 126.194 140.116 123.636C140.88 122.053 141.235 120.369 141.478 118.653C141.755 116.737 141.7 114.799 141.678 112.862ZM133.981 116.848C133.955 117.82 133.783 118.783 133.472 119.705C133.018 120.934 132.11 121.543 130.848 121.654C129.318 121.787 127.781 121.508 126.396 120.846C126.02 120.668 125.853 120.458 125.865 120.015C125.887 118.31 125.876 116.616 125.876 114.921C125.876 113.227 125.887 111.533 125.865 109.827C125.865 109.495 125.953 109.296 126.263 109.141C127.725 108.41 129.264 108.078 130.87 108.299C132.475 108.521 133.173 109.517 133.594 110.868C134.203 112.828 134.092 114.833 133.981 116.848Z" fill="#171312"/>
<path d="M99.1773 127.988C98.4464 127.822 97.7156 127.7 97.0069 127.501C94.1388 126.681 92.6771 124.655 92.212 121.82C92.0498 120.784 91.9757 119.735 91.9905 118.686V103.582C91.9905 102.796 92.1456 102.641 92.9207 102.641H98.9004C99.6867 102.641 99.8306 102.785 99.8306 103.582V118.243C99.8123 118.74 99.8495 119.238 99.9413 119.727C100.207 120.868 100.883 121.521 102.067 121.643C103.684 121.82 105.201 121.477 106.63 120.679C106.962 120.491 107.028 120.27 107.028 119.926C107.014 114.493 107.014 109.052 107.028 103.604C107.028 102.707 107.095 102.641 108.003 102.641H113.817C114.581 102.641 114.691 102.751 114.691 103.482C114.691 111.071 114.695 118.653 114.702 126.227C114.702 127.324 114.691 127.324 113.573 127.324C112.454 127.324 111.325 127.301 110.195 127.335C109.642 127.346 109.409 127.157 109.321 126.604C109.188 125.64 109.155 125.651 108.269 126.117C106.563 127.014 104.78 127.667 102.854 127.899C102.805 127.921 102.76 127.951 102.721 127.988H99.1773Z" fill="#171312"/>
<path d="M54.0083 127.988C53.1888 127.8 52.3472 127.778 51.5278 127.579C48.1504 126.77 46.434 124.379 46.1571 121.123C45.8471 117.424 46.0907 113.704 46.0353 110.005C46.0242 109.064 46.0353 109.064 45.0719 109.064C44.1085 109.064 43.4441 109.042 42.6357 109.064C42.1817 109.075 41.9713 108.864 41.9713 108.444C41.9602 107.082 41.9713 105.72 41.9713 104.346C41.9713 103.892 42.2592 103.726 42.6579 103.627C43.577 103.416 44.4961 103.162 45.4263 102.973C45.8803 102.885 46.0575 102.73 46.0464 102.22C46.0132 100.238 46.0464 98.2449 46.0242 96.2517C46.0132 95.698 46.2346 95.543 46.733 95.543C48.8148 95.5651 50.9077 95.5651 52.9895 95.543C53.4878 95.543 53.6982 95.6758 53.6871 96.2295C53.6539 98.1895 53.6871 100.138 53.665 102.099C53.665 102.519 53.7979 102.63 54.1965 102.63C55.6361 102.608 57.0757 102.619 58.5152 102.619C59.1353 102.619 59.2682 102.741 59.2682 103.361C59.2793 105 59.2793 106.639 59.2682 108.289C59.2682 108.953 59.1464 109.064 58.5041 109.064C57.12 109.064 55.7358 109.097 54.3516 109.053C53.7757 109.031 53.665 109.219 53.665 109.761C53.6871 112.707 53.7314 115.664 53.665 118.609C53.6096 120.935 55.0492 121.566 56.7324 121.665C57.3525 121.71 57.9837 121.61 58.6038 121.555C59.2239 121.499 59.3568 121.699 59.3457 122.241C59.3347 123.725 59.3347 125.22 59.3457 126.715C59.3457 127.103 59.1796 127.291 58.8253 127.379C57.9394 127.601 57.0424 127.822 56.1233 127.889C56.0015 127.9 55.8576 127.845 55.78 127.988H54.0083Z" fill="#171312"/>
<path d="M62.6345 109.163V91.9436C62.6345 91.2017 62.7231 91.1021 63.4429 91.1021H69.5333C70.2753 91.1021 70.386 91.2238 70.386 91.9769C70.386 95.9744 70.3971 99.983 70.3749 103.981C70.3749 104.534 70.541 104.645 71.0504 104.634C74.1436 104.612 77.2258 104.612 80.2968 104.634C80.773 104.634 80.917 104.534 80.917 104.036C80.8948 99.9941 80.9059 95.9523 80.9059 91.9104C80.9059 91.2017 81.0055 91.1021 81.7032 91.1021H87.8933C88.5466 91.1021 88.6574 91.2239 88.6574 91.8772V126.471C88.6574 127.158 88.5134 127.302 87.8158 127.313H81.7253C81.0166 127.313 80.8948 127.191 80.8948 126.471C80.9059 121.754 80.8948 117.025 80.917 112.308C80.917 111.799 80.7619 111.699 80.2968 111.699C77.211 111.721 74.1141 111.721 71.0061 111.699C70.4857 111.699 70.3749 111.865 70.386 112.352C70.3971 117.014 70.386 121.687 70.386 126.349C70.386 127.202 70.2753 127.324 69.4448 127.324H63.465C62.7342 127.313 62.6345 127.213 62.6345 126.482V109.163Z" fill="#171312"/>
<path d="M39.4133 114.922V126.217C39.4133 127.169 39.2805 127.302 38.3503 127.302H32.8135C31.8723 127.302 31.6508 127.07 31.6508 126.117V103.549C31.6508 102.774 31.8058 102.619 32.592 102.619H38.5164C39.358 102.619 39.4133 102.675 39.4244 103.527V114.922H39.4133Z" fill="#171312"/>
<path d="M35.6372 100.57C33.3228 100.626 31.3739 98.6988 31.3185 96.318C31.2631 93.9372 33.1678 91.944 35.4822 91.8886C36.0583 91.8769 36.631 91.9796 37.1671 92.191C37.7032 92.4024 38.1919 92.7181 38.605 93.1198C39.0181 93.5216 39.3473 94.0014 39.5735 94.5314C39.7997 95.0614 39.9184 95.6311 39.9226 96.2073C39.9559 98.5881 38.0512 100.526 35.6372 100.57Z" fill="#171312"/>
</svg>
