<svg width="100" height="91" viewBox="0 0 100 91" fill="none" xmlns="http://www.w3.org/2000/svg">
<path d="M5.1544 74.1879L0 15.8535H56.6333L51.4739 74.1778L28.2824 80.6658L5.1544 74.1879Z" fill="#E44F26"/>
<path d="M28.3175 75.7067L47.0573 70.4635L51.4672 20.623H28.3175V75.7067Z" fill="#F1662A"/>
<path d="M28.3174 42.2579H18.935L18.2873 34.9328H28.3174V27.7778H28.2923H10.5374L10.7076 29.6963L12.4502 49.4128H28.3174V42.2579Z" fill="#EBEBEB"/>
<path d="M28.3175 60.8391L28.2857 60.8475L20.3889 58.695L19.8848 52.9902H16.0474H12.7675L13.7606 64.2229L28.2841 68.2905L28.3175 68.2821V60.8391Z" fill="#EBEBEB"/>
<path d="M5.26965 0H8.87172V3.59263H12.1683V0H15.7721V10.879H12.1683V7.2358H8.87172V10.879H5.26965V0Z" fill="#010101"/>
<path d="M20.5091 3.60779H17.3376V0H27.2859V3.60779H24.1128V10.879H20.5091V3.60779Z" fill="#010101"/>
<path d="M28.865 0H32.6223L34.9324 3.82339L37.2425 0H40.9999V10.879H37.4111V5.48748L34.9324 9.35466H34.8707L32.3903 5.48748V10.879H28.865V0Z" fill="#010101"/>
<path d="M42.7925 0H46.3979V7.28296H51.4638V10.879H42.7925V0Z" fill="#010101"/>
<path d="M28.2923 42.2573V49.4123H37.0221L36.1992 58.6895L28.2923 60.8437V68.2867L42.8275 64.2224L42.9343 63.0131L44.6001 44.1791L44.7721 42.2573H42.8625H28.2923Z" fill="white"/>
<path d="M28.2923 27.7778V32.221V34.9143V34.9328H45.3947H45.418L45.5599 33.3243L45.8837 29.6963L46.0523 27.7778H28.2923Z" fill="white"/>
<path d="M87.7464 12.7847H83.0458L87.9341 18.1371V20.6849H77.8654V17.7019H82.7527L77.8654 12.3493V9.79785H87.7464V12.7847ZM75.8696 12.7847H71.169L76.0571 18.1371V20.6849H65.9884V17.7019H70.8764L65.9884 12.3493V9.79785H75.8696V12.7847ZM64.109 12.9059H59.0367V17.5771H64.109V20.6849H55.4317V9.79785H64.109V12.9059Z" fill="#131313"/>
<path d="M48.5195 83.988L43.3651 25.6553H100L94.8406 83.9796L71.6475 90.4675L48.5195 83.988Z" fill="#1572B6"/>
<path d="M71.6827 85.5085L90.4241 80.2652L94.8324 30.4248H71.6827V85.5085Z" fill="#33A9DC"/>
<path d="M71.6824 51.5593H81.0648L81.7125 44.2326H71.6824V37.0776H71.7075H89.4607L89.2922 38.9978L87.5495 58.7126H71.6824V51.5593Z" fill="white"/>
<path d="M71.7258 70.1394L71.6941 70.1478L63.7973 67.997L63.2932 62.2905H59.4557H56.1758L57.169 73.5232L71.6924 77.5925L71.7258 77.5841V70.1394Z" fill="#EBEBEB"/>
<path d="M80.4623 58.4097L79.6077 67.9917L71.7009 70.1459V77.5889L86.236 73.523L86.3428 72.3153L87.5763 58.4097H80.4623Z" fill="white"/>
<path d="M71.7078 37.0786V41.5218V44.2167V44.2336H54.6038H54.5821L54.4402 42.625L54.1164 38.9987L53.9478 37.0786H71.7078Z" fill="#EBEBEB"/>
<path d="M71.6826 51.5601V56.0033V58.6965V58.715H63.9093H63.8876L63.744 57.1065L63.4219 53.4802L63.2516 51.5601H71.6826Z" fill="#EBEBEB"/>
</svg>
