<svg width="101" height="101" viewBox="0 0 101 101" fill="none" xmlns="http://www.w3.org/2000/svg">
<path d="M0 0H101V101H0V0Z" fill="#F7DF1E"/>
<path d="M26.5566 84.4035L34.2858 79.7259C35.7769 82.3697 37.1333 84.6067 40.387 84.6067C43.5058 84.6067 45.4721 83.3866 45.4721 78.6412V46.3693H54.9635V78.7754C54.9635 88.6061 49.2011 93.0807 40.7939 93.0807C33.2011 93.0807 28.7936 89.1483 26.5564 84.4027L26.5566 84.4035ZM60.119 83.3865L67.8473 78.9119C69.8817 82.2343 72.5258 84.6748 77.2036 84.6748C81.1363 84.6748 83.6442 82.7085 83.6442 79.9966C83.6442 76.7423 81.068 75.5896 76.7289 73.6919L74.3566 72.6742C67.5087 69.7595 62.9661 66.0985 62.9661 58.3694C62.9661 51.2507 68.3898 45.8267 76.8648 45.8267C82.8988 45.8267 87.2378 47.9286 90.3562 53.4203L82.9662 58.1658C81.339 55.2508 79.5767 54.0984 76.865 54.0984C74.0852 54.0984 72.3224 55.8611 72.3224 58.1658C72.3224 61.0134 74.0852 62.1662 78.1526 63.9291L80.5253 64.946C88.5933 68.4038 93.1359 71.9289 93.1359 79.8609C93.1359 88.4039 86.4241 93.0815 77.4072 93.0815C68.5936 93.0815 62.8984 88.8783 60.1192 83.3865" fill="black"/>
</svg>
