<svg width="101" height="101" viewBox="0 0 101 101" fill="none" xmlns="http://www.w3.org/2000/svg">
<path d="M6.3125 6.3125V94.6875H94.6875V6.3125H6.3125ZM0 0H101V101H0V0Z" fill="#43C9FF"/>
<mask id="mask0_1001_209" style="mask-type:alpha" maskUnits="userSpaceOnUse" x="23" y="28" width="60" height="46">
<path d="M35.6026 28.4062C41.9572 28.4062 46.8283 29.5635 50.2161 31.8781C53.6038 34.1927 55.2976 37.8119 55.2976 42.7356C55.2976 45.3027 54.8452 47.5016 53.9404 49.3322C53.0357 51.1628 51.7206 52.6568 49.9951 53.8141C48.2697 54.9714 46.1656 55.8235 43.6826 56.3706C41.1997 56.9177 38.3591 57.1912 35.1608 57.1912H31.1839V72.5938H23.2301V29.4794C25.0818 29.0585 27.1333 28.7745 29.3848 28.6272C31.6363 28.4799 33.7089 28.4062 35.6026 28.4062ZM36.1708 35.2869C34.1507 35.2869 32.4885 35.35 31.1839 35.4763V50.3737H35.0345C38.8641 50.3737 41.8099 49.8372 43.872 48.7641C45.9341 47.6909 46.9651 45.6604 46.9651 42.6725C46.9651 41.2417 46.6916 40.0423 46.1445 39.0744C45.5974 38.1065 44.8399 37.349 43.872 36.8019C42.9041 36.2548 41.7573 35.8655 40.4317 35.6341C39.1061 35.4026 37.6858 35.2869 36.1708 35.2869ZM68.8695 67.1019C70.8895 67.1019 72.3624 66.8599 73.2883 66.3759C74.2141 65.892 74.677 65.0608 74.677 63.8825C74.677 62.7883 74.1825 61.8835 73.1936 61.1681C72.2046 60.4527 70.5739 59.6742 68.3014 58.8325C66.9126 58.3275 65.6396 57.7909 64.4823 57.2228C63.325 56.6547 62.3256 55.9919 61.4839 55.2344C60.6422 54.4769 59.9794 53.5616 59.4954 52.4884C59.0115 51.4153 58.7695 50.1002 58.7695 48.5431C58.7695 45.5131 59.8847 43.1249 62.1151 41.3784C64.3456 39.632 67.3755 38.7587 71.2051 38.7587C73.141 38.7587 74.9926 38.9376 76.7601 39.2953C78.5276 39.653 79.8533 40.0002 80.737 40.3369L79.3483 46.5231C78.5066 46.1444 77.4335 45.7972 76.1289 45.4816C74.8243 45.1659 73.3093 45.0081 71.5839 45.0081C70.0268 45.0081 68.7643 45.2711 67.7964 45.7972C66.8285 46.3232 66.3445 47.1333 66.3445 48.2275C66.3445 48.7746 66.4392 49.2585 66.6286 49.6794C66.8179 50.1002 67.1441 50.4895 67.607 50.8472C68.0699 51.2049 68.6801 51.5626 69.4376 51.9203C70.1951 52.278 71.121 52.6462 72.2151 53.025C74.0247 53.6983 75.5608 54.3611 76.8233 55.0134C78.0858 55.6657 79.1273 56.4022 79.9479 57.2228C80.7686 58.0434 81.3683 58.9798 81.747 60.0319C82.1258 61.084 82.3151 62.3464 82.3151 63.8194C82.3151 66.9756 81.1473 69.3638 78.8117 70.9841C76.4761 72.6043 73.141 73.4144 68.8064 73.4144C65.9026 73.4144 63.567 73.1724 61.7995 72.6884C60.032 72.2045 58.7906 71.8152 58.0751 71.5206L59.4008 65.145C60.537 65.6079 61.8942 66.0498 63.4723 66.4706C65.0505 66.8915 66.8495 67.1019 68.8695 67.1019Z" fill="white"/>
</mask>
<g mask="url(#mask0_1001_209)">
<path d="M35.6026 28.4062C41.9572 28.4062 46.8283 29.5635 50.2161 31.8781C53.6038 34.1927 55.2976 37.8119 55.2976 42.7356C55.2976 45.3027 54.8452 47.5016 53.9404 49.3322C53.0357 51.1628 51.7206 52.6568 49.9951 53.8141C48.2697 54.9714 46.1656 55.8235 43.6826 56.3706C41.1997 56.9177 38.3591 57.1912 35.1608 57.1912H31.1839V72.5938H23.2301V29.4794C25.0818 29.0585 27.1333 28.7745 29.3848 28.6272C31.6363 28.4799 33.7089 28.4062 35.6026 28.4062ZM36.1708 35.2869C34.1507 35.2869 32.4885 35.35 31.1839 35.4763V50.3737H35.0345C38.8641 50.3737 41.8099 49.8372 43.872 48.7641C45.9341 47.6909 46.9651 45.6604 46.9651 42.6725C46.9651 41.2417 46.6916 40.0423 46.1445 39.0744C45.5974 38.1065 44.8399 37.349 43.872 36.8019C42.9041 36.2548 41.7573 35.8655 40.4317 35.6341C39.1061 35.4026 37.6858 35.2869 36.1708 35.2869ZM68.8695 67.1019C70.8895 67.1019 72.3624 66.8599 73.2883 66.3759C74.2141 65.892 74.677 65.0608 74.677 63.8825C74.677 62.7883 74.1825 61.8835 73.1936 61.1681C72.2046 60.4527 70.5739 59.6742 68.3014 58.8325C66.9126 58.3275 65.6396 57.7909 64.4823 57.2228C63.325 56.6547 62.3256 55.9919 61.4839 55.2344C60.6422 54.4769 59.9794 53.5616 59.4954 52.4884C59.0115 51.4153 58.7695 50.1002 58.7695 48.5431C58.7695 45.5131 59.8847 43.1249 62.1151 41.3784C64.3456 39.632 67.3755 38.7587 71.2051 38.7587C73.141 38.7587 74.9926 38.9376 76.7601 39.2953C78.5276 39.653 79.8533 40.0002 80.737 40.3369L79.3483 46.5231C78.5066 46.1444 77.4335 45.7972 76.1289 45.4816C74.8243 45.1659 73.3093 45.0081 71.5839 45.0081C70.0268 45.0081 68.7643 45.2711 67.7964 45.7972C66.8285 46.3232 66.3445 47.1333 66.3445 48.2275C66.3445 48.7746 66.4392 49.2585 66.6286 49.6794C66.8179 50.1002 67.1441 50.4895 67.607 50.8472C68.0699 51.2049 68.6801 51.5626 69.4376 51.9203C70.1951 52.278 71.121 52.6462 72.2151 53.025C74.0247 53.6983 75.5608 54.3611 76.8233 55.0134C78.0858 55.6657 79.1273 56.4022 79.9479 57.2228C80.7686 58.0434 81.3683 58.9798 81.747 60.0319C82.1258 61.084 82.3151 62.3464 82.3151 63.8194C82.3151 66.9756 81.1473 69.3638 78.8117 70.9841C76.4761 72.6043 73.141 73.4144 68.8064 73.4144C65.9026 73.4144 63.567 73.1724 61.7995 72.6884C60.032 72.2045 58.7906 71.8152 58.0751 71.5206L59.4008 65.145C60.537 65.6079 61.8942 66.0498 63.4723 66.4706C65.0505 66.8915 66.8495 67.1019 68.8695 67.1019Z" fill="white"/>
<path d="M101 0H0V101H101V0Z" fill="#43C9FF"/>
</g>
</svg>
