<svg width="114" height="101" viewBox="0 0 114 101" fill="none" xmlns="http://www.w3.org/2000/svg">
<path d="M57.0257 40.2799C51.3926 40.2731 46.8337 44.8079 46.8385 50.4119C46.8443 55.9975 51.3917 60.5274 56.9947 60.5283C62.5996 60.5303 67.1489 56.0042 67.1566 50.4196C67.1644 44.8311 62.6229 40.2867 57.0257 40.2799ZM57.0257 40.2799C51.3926 40.2731 46.8337 44.8079 46.8385 50.4119C46.8443 55.9975 51.3917 60.5274 56.9947 60.5283C62.5996 60.5303 67.1489 56.0042 67.1566 50.4196C67.1644 44.8311 62.6229 40.2867 57.0257 40.2799ZM57.0257 40.2799C51.3926 40.2731 46.8337 44.8079 46.8385 50.4119C46.8443 55.9975 51.3917 60.5274 56.9947 60.5283C62.5996 60.5303 67.1489 56.0042 67.1566 50.4196C67.1644 44.8311 62.6229 40.2867 57.0257 40.2799ZM57.0257 40.2799C51.3926 40.2731 46.8337 44.8079 46.8385 50.4119C46.8443 55.9975 51.3917 60.5274 56.9947 60.5283C62.5996 60.5303 67.1489 56.0042 67.1566 50.4196C67.1644 44.8311 62.6229 40.2867 57.0257 40.2799ZM57.0257 40.2799C51.3926 40.2731 46.8337 44.8079 46.8385 50.4119C46.8443 55.9975 51.3917 60.5274 56.9947 60.5283C62.5996 60.5303 67.1489 56.0042 67.1566 50.4196C67.1644 44.8311 62.6229 40.2867 57.0257 40.2799ZM57.0257 40.2799C51.3926 40.2731 46.8337 44.8079 46.8385 50.4119C46.8443 55.9975 51.3917 60.5274 56.9947 60.5283C62.5996 60.5303 67.1489 56.0042 67.1566 50.4196C67.1644 44.8311 62.6229 40.2867 57.0257 40.2799ZM57.0257 40.2799C51.3926 40.2731 46.8337 44.8079 46.8385 50.4119C46.8443 55.9975 51.3917 60.5274 56.9947 60.5283C62.5996 60.5303 67.1489 56.0042 67.1566 50.4196C67.1644 44.8311 62.6229 40.2867 57.0257 40.2799ZM57.0257 40.2799C51.3926 40.2731 46.8337 44.8079 46.8385 50.4119C46.8443 55.9975 51.3917 60.5274 56.9947 60.5283C62.5996 60.5303 67.1489 56.0042 67.1566 50.4196C67.1644 44.8311 62.6229 40.2867 57.0257 40.2799ZM57.0257 40.2799C51.3926 40.2731 46.8337 44.8079 46.8385 50.4119C46.8443 55.9975 51.3917 60.5274 56.9947 60.5283C62.5996 60.5303 67.1489 56.0042 67.1566 50.4196C67.1644 44.8311 62.6229 40.2867 57.0257 40.2799ZM57.0257 40.2799C51.3926 40.2731 46.8337 44.8079 46.8385 50.4119C46.8443 55.9975 51.3917 60.5274 56.9947 60.5283C62.5996 60.5303 67.1489 56.0042 67.1566 50.4196C67.1644 44.8311 62.6229 40.2867 57.0257 40.2799ZM57.0257 40.2799C51.3926 40.2731 46.8337 44.8079 46.8385 50.4119C46.8443 55.9975 51.3917 60.5274 56.9947 60.5283C62.5996 60.5303 67.1489 56.0042 67.1566 50.4196C67.1644 44.8311 62.6229 40.2867 57.0257 40.2799ZM57.0257 40.2799C51.3926 40.2731 46.8337 44.8079 46.8385 50.4119C46.8443 55.9975 51.3917 60.5274 56.9947 60.5283C62.5996 60.5303 67.1489 56.0042 67.1566 50.4196C67.1644 44.8311 62.6229 40.2867 57.0257 40.2799ZM113.452 47.2525C112.736 45.1594 111.47 43.4131 109.944 41.8586C106.903 38.7583 103.213 36.613 99.3069 34.8057C96.5471 33.5282 93.6884 32.5122 90.7784 31.6327C90.1958 31.4564 90.1861 31.4274 90.3208 30.8501C90.5893 29.7034 90.8336 28.5518 91.0401 27.3924C91.6237 24.1003 91.9775 20.786 91.9785 17.4377C91.9794 16.2754 91.8941 15.119 91.7875 13.9635C91.5636 11.5238 91.0828 9.14114 90.1221 6.87765C89.111 4.49405 87.6802 2.4388 85.3693 1.12545C84.3815 0.563694 83.3423 0.14625 82.179 0.0813579C81.832 0.061987 81.4724 0.11332 81.1311 0H78.9985C78.8832 0.0891063 78.7494 0.0416475 78.6243 0.0464902C77.7219 0.0852321 76.8271 0.151093 75.945 0.378702C72.589 1.24458 69.5452 2.78941 66.6429 4.63256C63.3334 6.7343 60.3051 9.19635 57.4745 11.9044C57.0625 12.2976 57.0237 12.3044 56.6156 11.8986C55.9855 11.2719 55.3099 10.6966 54.6401 10.1136C51.0921 7.02583 47.2844 4.32165 43.0143 2.30901C41.2142 1.4596 39.3559 0.755466 37.3997 0.351582C35.7954 0.0193709 34.1688 0.0329306 32.5373 0.0881377C29.9481 0.174338 27.8291 1.24652 26.0978 3.10322C24.6631 4.64224 23.779 6.50669 23.1431 8.49609C22.23 11.3562 21.9934 14.317 21.9556 17.2866C21.9391 18.6164 22.0089 19.9598 22.1369 21.2935C22.4413 24.479 22.9657 27.6258 23.7218 30.7349C23.8779 31.3761 23.8663 31.3974 23.24 31.5833C21.6755 32.0473 20.1225 32.5451 18.5938 33.1156C14.7212 34.5606 11.0065 36.3137 7.63504 38.7351C5.57706 40.2121 3.70035 41.8761 2.23077 43.9623C1.30114 45.2824 0.57799 46.7004 0.233861 48.284C-0.357458 51.0085 0.199933 53.5374 1.5968 55.9103C3.07219 58.4169 5.12145 60.3889 7.42663 62.1167C12.0089 65.5502 17.1863 67.7692 22.6003 69.499C23.9942 69.9445 23.8449 69.6046 23.5115 71.1049C22.4452 75.9069 21.7278 80.7419 22.0099 85.6853C22.1243 87.6902 22.3725 89.667 22.8911 91.608C23.3816 93.4463 24.0766 95.1926 25.1953 96.749C27.1311 99.4416 29.6806 100.981 33.0569 100.952C33.086 100.953 33.1151 100.952 33.1442 100.952H34.6011C34.6399 100.952 34.6777 100.953 34.7165 100.953C36.1376 100.964 37.5277 100.78 38.9003 100.389C42.9096 99.245 46.4983 97.2643 49.9008 94.9098C52.3465 93.2168 54.6119 91.3 56.7979 89.2864C57.2322 88.8864 57.2797 88.8874 57.7023 89.3164C58.4264 90.0545 59.2068 90.7305 59.9881 91.4046C63.5486 94.4739 67.3466 97.1868 71.6584 99.1162C73.5031 99.9423 75.3934 100.64 77.4204 100.882C77.9128 100.941 78.412 100.91 78.9016 101H81.1311C81.263 100.907 81.4123 100.964 81.5528 100.953C82.0821 100.91 82.6211 100.926 83.1358 100.79C85.1502 100.254 86.8039 99.151 88.1349 97.5539C89.7314 95.6381 90.6572 93.4008 91.2553 91.0133C92.311 86.7963 92.3468 82.524 91.9271 78.2295C91.6586 75.4798 91.1855 72.764 90.5389 70.0792C90.4497 69.7111 90.5719 69.5426 90.9141 69.4467C92.0492 69.1271 93.1601 68.7348 94.2681 68.33C98.3792 66.8287 102.323 64.9943 105.913 62.4654C108.576 60.5903 110.965 58.4382 112.577 55.5519C114.049 52.9136 114.446 50.1562 113.452 47.2525ZM60.6405 15.8086C64.6459 12.041 68.9083 8.63362 73.983 6.37885C75.9324 5.51297 77.9419 4.86501 80.1094 4.83886C82.179 4.81271 83.73 5.69215 84.7983 7.45006C85.7657 9.04138 86.2436 10.8022 86.549 12.6143C86.8359 14.3171 86.9358 16.0382 86.9426 17.7641C86.8931 21.9017 86.3008 25.9687 85.3644 29.992C85.2791 30.3562 85.1104 30.3494 84.8293 30.2845C81.5063 29.5155 78.1455 28.9518 74.7672 28.4888C73.316 28.2893 71.8562 28.145 70.3973 28.0016C70.1423 27.9765 69.995 27.8864 69.8544 27.6869C67.747 24.6757 65.499 21.7729 63.1017 18.9854C62.303 18.0566 61.4838 17.1433 60.6676 16.229C60.5377 16.0837 60.4447 15.9926 60.6405 15.8086ZM33.6405 56.4265C33.656 56.3888 33.686 56.3568 33.7461 56.2658C35.8206 60.2436 38.0405 64.0839 40.4881 67.8777C39.6903 67.8961 38.9837 67.7556 38.2789 67.6617C35.65 67.312 33.0336 66.8733 30.4357 66.3348C30.1575 66.2766 30.0286 66.2369 30.142 65.8844C31.1695 62.6804 32.3367 59.5288 33.6405 56.4265ZM31.4235 38.9259C31.0018 37.7336 30.6286 36.5229 30.2137 35.3277C30.1197 35.0594 30.1575 34.9839 30.4415 34.9209C32.6236 34.4376 34.8212 34.0386 37.0304 33.7006C38.1248 33.533 39.2221 33.3868 40.4183 33.2163C37.9959 37.0072 35.7915 40.8213 33.7229 44.8079C32.8669 42.8146 32.1156 40.8814 31.4235 38.9259ZM36.4866 50.9145C36.3431 50.6211 36.3528 50.4012 36.4943 50.1106C39.354 44.2354 42.6159 38.5917 46.2559 33.164C46.5361 32.7456 46.8472 32.5693 47.3407 32.5393C51.1939 32.3068 55.0491 32.1993 58.9102 32.239C61.51 32.2652 64.1041 32.4153 66.7001 32.5432C67.1809 32.5674 67.4756 32.7475 67.7441 33.1495C71.3734 38.6014 74.6431 44.2587 77.5794 50.1116C77.7112 50.3741 77.6957 50.5552 77.5697 50.8119C74.6392 56.7946 71.2939 62.539 67.6258 68.0985C67.5008 68.2883 67.3922 68.4491 67.113 68.4646C63.6795 68.6631 60.244 68.8084 57.2176 68.7755C53.5573 68.7765 50.3137 68.7077 47.0741 68.4849C46.7804 68.4656 46.6194 68.3542 46.4624 68.1227C42.7352 62.6194 39.4034 56.8876 36.4866 50.9145ZM80.3779 56.0217C80.9625 57.4483 81.5102 58.7569 82.0375 60.0721C82.7771 61.9172 83.4412 63.7894 84.0664 65.6762C84.1692 65.9851 84.0945 66.0684 83.8202 66.1256C81.0332 66.7076 78.2405 67.2452 75.4138 67.5997C74.8409 67.6714 74.2728 67.7866 73.601 67.7992C76.0303 63.9444 78.2569 60.0867 80.3779 56.0217ZM80.439 44.5405C80.409 44.6122 80.3605 44.6752 80.2975 44.7827C78.2153 40.8533 76.009 37.0362 73.602 33.2521C75.4303 33.4478 77.1596 33.7228 78.8822 34.0279C80.4477 34.3059 82.0016 34.6468 83.5614 34.9558C83.7921 35.0013 83.9782 34.9955 83.8619 35.3587C82.8605 38.4716 81.7157 41.5313 80.439 44.5405ZM56.7843 19.7496C56.9094 19.6121 56.9985 19.3874 57.2438 19.6586C59.4976 22.1584 61.6574 24.7347 63.7299 27.5203C59.233 27.3392 54.8339 27.3362 50.3137 27.5183C50.8391 26.8374 51.2957 26.2311 51.7678 25.6364C53.3721 23.6161 55.0423 21.6519 56.7843 19.7496ZM28.2139 9.21669C28.5677 8.26073 29.033 7.36386 29.7126 6.59483C31.0396 5.09358 32.7826 4.79721 34.6486 4.98801C38.1384 5.34444 41.2016 6.8544 44.1524 8.622C47.5142 10.6346 50.5435 13.0831 53.4031 15.7505C53.6464 15.9781 53.5737 16.0876 53.3963 16.2803C50.8925 18.998 48.5243 21.8301 46.2986 24.7793C45.59 25.7168 44.9027 26.6709 44.2183 27.6268C44.0487 27.8631 43.8732 27.9784 43.5611 28.0084C38.7171 28.4627 33.9167 29.1997 29.1649 30.2477C28.8605 30.3155 28.7694 30.2574 28.7044 29.9833C27.7234 25.8398 27.0129 21.6596 27.0206 18.0033C27.0167 14.6028 27.2397 11.854 28.2139 9.21669ZM25.5258 64.4635C25.3678 64.9672 25.2282 65.0437 24.7271 64.8974C20.1051 63.5483 15.7032 61.7196 11.7345 58.9583C10.136 57.8474 8.47937 56.7946 7.21046 55.2769C6.09374 53.9422 5.39869 52.4051 5.06426 50.7034C5.03033 50.531 5.04002 50.3499 5.02839 50.1562C5.1137 48.836 5.6992 47.7038 6.47858 46.6607C8.09937 44.4911 10.2368 42.9173 12.5246 41.5322C16.4525 39.1525 20.7071 37.5447 25.0983 36.2624C25.4735 36.1529 25.4531 36.3883 25.519 36.5936C26.8927 40.8881 28.4543 45.1139 30.362 49.2002C30.8002 50.1378 30.8225 50.8642 30.3776 51.8143C28.4611 55.9122 26.882 60.1477 25.5258 64.4635ZM39.4587 94.9078C38.3129 95.3747 37.1806 95.8657 35.935 96.0139C34.2589 96.2134 32.6129 96.0827 31.0435 95.4531C30.2816 95.1461 29.7465 94.5107 29.2831 93.8386C28.2682 92.3683 27.7622 90.7024 27.4374 88.9716C26.8374 85.7735 26.8975 82.5608 27.2203 79.3375C27.4878 76.6604 28.0103 74.0308 28.5958 71.409C28.6908 70.9848 28.8576 70.9363 29.2444 71.0177C32.5034 71.7073 35.7867 72.2545 39.0971 72.641C40.6665 72.825 42.2369 72.9935 43.8131 73.1049C44.0545 73.1214 44.1466 73.2705 44.2561 73.4245C46.0407 75.9331 47.9233 78.368 49.8979 80.7312C51.159 82.2402 52.4648 83.7114 53.7899 85.1594C49.6226 89.3222 44.9259 92.6783 39.4587 94.9078ZM57.4726 81.3734C57.3301 81.5332 57.2302 81.7501 56.9656 81.4596C54.6633 78.9355 52.4774 76.3156 50.3544 73.5165C54.8805 73.6647 59.3115 73.6792 63.7939 73.4904C63.6097 73.9117 63.3237 74.2119 63.0804 74.5354C61.3103 76.8958 59.4356 79.1709 57.4726 81.3734ZM87.1151 83.3589C87.0899 84.4504 86.9154 86.4534 86.6818 88.4573C86.4375 90.5484 85.6891 92.379 84.4212 94.0516C83.0457 95.8667 81.2164 96.3607 79.0741 96.1079C75.7899 95.7204 72.8982 94.3054 70.1123 92.6395C66.7194 90.6104 63.7008 88.0951 60.8237 85.3996C60.5804 85.171 60.6686 85.0655 60.8353 84.8795C63.3993 82.0204 65.8228 79.046 68.0824 75.9418C68.6989 75.0953 69.2999 74.2381 69.8961 73.378C70.0454 73.1611 70.216 73.0419 70.4835 73.0245C72.3505 72.9063 74.2079 72.6768 76.0584 72.4192C78.8783 72.0269 81.6866 71.5514 84.4658 70.9276C85.5059 70.6942 85.5137 70.6835 85.7483 71.684C86.581 75.2192 87.1442 78.7903 87.1151 83.3589ZM107.259 54.503C105.461 56.7558 103.156 58.4004 100.694 59.8397C97.088 61.9482 93.2386 63.4901 89.2477 64.7018C88.9753 64.7841 88.8697 64.7754 88.7708 64.4752C87.2353 59.7758 85.409 55.1926 83.2676 50.7354C83.1581 50.5058 83.1678 50.3228 83.2715 50.1019C85.3227 45.727 87.0715 41.2339 88.5352 36.6294C88.6138 36.3825 88.6845 36.2507 88.9986 36.3447C93.7534 37.7714 98.3492 39.5583 102.526 42.2925C104.466 43.5633 106.267 44.9967 107.64 46.8941C108.405 47.9518 108.98 49.0917 108.958 50.931C108.932 52.0235 108.205 53.3175 107.259 54.503ZM56.9947 60.5283C62.5996 60.5303 67.1489 56.0042 67.1566 50.4196C67.1644 44.8311 62.6229 40.2867 57.0257 40.2799C51.3926 40.2731 46.8337 44.8079 46.8385 50.4119C46.8443 55.9975 51.3917 60.5274 56.9947 60.5283ZM57.0257 40.2799C51.3926 40.2731 46.8337 44.8079 46.8385 50.4119C46.8443 55.9975 51.3917 60.5274 56.9947 60.5283C62.5996 60.5303 67.1489 56.0042 67.1566 50.4196C67.1644 44.8311 62.6229 40.2867 57.0257 40.2799ZM57.0257 40.2799C51.3926 40.2731 46.8337 44.8079 46.8385 50.4119C46.8443 55.9975 51.3917 60.5274 56.9947 60.5283C62.5996 60.5303 67.1489 56.0042 67.1566 50.4196C67.1644 44.8311 62.6229 40.2867 57.0257 40.2799ZM57.0257 40.2799C51.3926 40.2731 46.8337 44.8079 46.8385 50.4119C46.8443 55.9975 51.3917 60.5274 56.9947 60.5283C62.5996 60.5303 67.1489 56.0042 67.1566 50.4196C67.1644 44.8311 62.6229 40.2867 57.0257 40.2799ZM57.0257 40.2799C51.3926 40.2731 46.8337 44.8079 46.8385 50.4119C46.8443 55.9975 51.3917 60.5274 56.9947 60.5283C62.5996 60.5303 67.1489 56.0042 67.1566 50.4196C67.1644 44.8311 62.6229 40.2867 57.0257 40.2799ZM57.0257 40.2799C51.3926 40.2731 46.8337 44.8079 46.8385 50.4119C46.8443 55.9975 51.3917 60.5274 56.9947 60.5283C62.5996 60.5303 67.1489 56.0042 67.1566 50.4196C67.1644 44.8311 62.6229 40.2867 57.0257 40.2799ZM57.0257 40.2799C51.3926 40.2731 46.8337 44.8079 46.8385 50.4119C46.8443 55.9975 51.3917 60.5274 56.9947 60.5283C62.5996 60.5303 67.1489 56.0042 67.1566 50.4196C67.1644 44.8311 62.6229 40.2867 57.0257 40.2799ZM57.0257 40.2799C51.3926 40.2731 46.8337 44.8079 46.8385 50.4119C46.8443 55.9975 51.3917 60.5274 56.9947 60.5283C62.5996 60.5303 67.1489 56.0042 67.1566 50.4196C67.1644 44.8311 62.6229 40.2867 57.0257 40.2799ZM57.0257 40.2799C51.3926 40.2731 46.8337 44.8079 46.8385 50.4119C46.8443 55.9975 51.3917 60.5274 56.9947 60.5283C62.5996 60.5303 67.1489 56.0042 67.1566 50.4196C67.1644 44.8311 62.6229 40.2867 57.0257 40.2799ZM57.0257 40.2799C51.3926 40.2731 46.8337 44.8079 46.8385 50.4119C46.8443 55.9975 51.3917 60.5274 56.9947 60.5283C62.5996 60.5303 67.1489 56.0042 67.1566 50.4196C67.1644 44.8311 62.6229 40.2867 57.0257 40.2799ZM57.0257 40.2799C51.3926 40.2731 46.8337 44.8079 46.8385 50.4119C46.8443 55.9975 51.3917 60.5274 56.9947 60.5283C62.5996 60.5303 67.1489 56.0042 67.1566 50.4196C67.1644 44.8311 62.6229 40.2867 57.0257 40.2799Z" fill="#75CBEC"/>
</svg>
