<svg width="111" height="84" viewBox="0 0 111 84" fill="none" xmlns="http://www.w3.org/2000/svg">
<path d="M95.5541 48.2352C91.6731 48.2571 88.3125 49.1983 85.4939 50.5992C84.4532 48.5197 83.4124 46.7029 83.239 45.3458C83.0438 43.7697 82.8054 42.8066 83.0438 40.9241C83.2823 39.0416 84.3664 36.3712 84.3664 36.1523C84.3447 35.9553 84.1279 34.9921 81.8947 34.9702C79.6615 34.9483 77.7319 35.408 77.515 35.999C77.2982 36.59 76.8646 37.9472 76.5827 39.3481C76.1925 41.4057 72.1163 48.6948 69.7964 52.5255C69.0375 51.037 68.3871 49.7236 68.257 48.6729C68.0619 47.0969 67.8234 46.1338 68.0619 44.2513C68.3004 42.3688 69.3845 39.6983 69.3845 39.4794C69.3628 39.2824 69.146 38.3193 66.9128 38.2974C64.6795 38.2755 62.7499 38.7352 62.5331 39.3262C62.3163 39.9172 62.0778 41.3181 61.6008 42.6753C61.1455 44.0324 55.7251 56.2029 54.3158 59.3768C53.6003 60.9966 52.9715 62.2881 52.5162 63.1637C52.0609 64.0392 52.4945 63.2293 52.4511 63.3169C52.0609 64.0611 51.8441 64.477 51.8441 64.477V64.4989C51.5405 65.0462 51.2153 65.5715 51.0635 65.5715C50.9551 65.5715 50.7383 64.1049 51.1069 62.0911C51.9091 57.8665 53.8604 51.2778 53.8388 51.037C53.8388 50.9275 54.2073 49.7674 52.5812 49.1764C50.9985 48.5854 50.4347 49.5704 50.3047 49.5704C50.1746 49.5704 50.0662 49.9206 50.0662 49.9206C50.0662 49.9206 51.8224 42.5002 46.7055 42.5002C43.4966 42.5002 39.0736 46.0243 36.8838 49.2421C35.4961 50.0082 32.5474 51.628 29.4253 53.3573C28.2328 54.0139 26.997 54.7144 25.8262 55.3492L25.5877 55.0865C19.3867 48.4103 7.91717 43.6822 8.39417 34.7076C8.56762 31.4461 9.69506 22.8436 30.4227 12.4242C47.3993 3.88741 60.9937 6.22957 63.357 11.4392C66.7176 18.8816 56.0936 32.7156 38.4448 34.7076C31.7235 35.4737 28.1895 32.847 27.3005 31.862C26.3682 30.8332 26.2381 30.7894 25.8912 30.9864C25.3275 31.2928 25.6744 32.2122 25.8912 32.7594C26.4116 34.1384 28.5797 36.59 32.2656 37.8158C35.4961 38.8884 43.3882 39.4794 52.9281 35.7583C63.6172 31.5774 71.9646 19.9761 69.5145 10.2791C67.0212 0.407008 50.8033 -2.83261 35.4745 2.66161C26.3465 5.945 16.4597 11.0671 9.34816 17.7871C0.892341 25.7548 -0.451917 32.7156 0.111804 35.605C2.08483 45.9149 16.1562 52.6349 21.7934 57.6038C21.5115 57.757 21.2513 57.9102 21.0128 58.0416C18.1942 59.4425 7.46186 65.1118 4.77334 71.1095C1.73792 77.8952 5.25034 82.7765 7.59195 83.4332C14.8336 85.4689 22.2487 81.8134 26.2598 75.7938C30.2492 69.7742 29.7722 61.9598 27.9293 58.3918L27.8642 58.2605L30.0757 56.9471C31.5067 56.0934 32.916 55.3054 34.1519 54.6268C33.4581 56.5312 32.9594 58.7858 32.6992 62.0692C32.3957 65.9217 33.9568 70.9125 36.0165 72.8825C36.9271 73.7362 38.0112 73.7581 38.6833 73.7581C41.0683 73.7581 42.1524 71.7662 43.3449 69.3802C44.8192 66.469 46.1201 63.098 46.1201 63.098C46.1201 63.098 44.494 72.2259 48.9387 72.2259C50.5648 72.2259 52.191 70.1026 52.9281 69.0081V69.03C52.9281 69.03 52.9715 68.9643 53.0582 68.8111C53.2317 68.5484 53.3184 68.3952 53.3184 68.3952V68.3514C53.9689 67.2132 55.4215 64.6084 57.5897 60.2962C60.3866 54.7363 63.0751 47.7755 63.0751 47.7755C63.0751 47.7755 63.3353 49.4829 64.1375 52.2847C64.6145 53.9483 65.6552 55.7651 66.4574 57.5381C65.807 58.4575 65.4167 58.9828 65.4167 58.9828L65.4384 59.0047C64.918 59.7052 64.3326 60.4494 63.7256 61.1936C61.514 63.8641 58.8689 66.9067 58.522 67.7823C58.11 68.8111 58.1968 69.5772 58.999 70.1901C59.5844 70.6279 60.6251 70.7155 61.7309 70.6279C63.7256 70.4966 65.1132 69.9931 65.807 69.6867C66.8911 69.2927 68.1269 68.7017 69.3194 67.8261C71.4876 66.2063 72.8101 63.9079 72.6801 60.8434C72.615 59.1579 72.073 57.4943 71.4008 55.9183C71.596 55.6337 71.7911 55.3492 71.9862 55.0427C75.4119 49.9863 78.0571 44.4264 78.0571 44.4264C78.0571 44.4264 78.3173 46.1338 79.1195 48.9356C79.5314 50.3584 80.3553 51.9126 81.0925 53.4448C77.8836 56.0934 75.8672 59.1579 75.1734 61.1717C73.8942 64.8929 74.8916 66.5784 76.7779 66.9724C77.6235 67.1475 78.8376 66.7535 79.7482 66.3595C80.8757 65.9874 82.2416 65.3526 83.4992 64.4114C85.6673 62.7916 87.7487 60.537 87.6403 57.4943C87.5753 56.0934 87.2067 54.7144 86.708 53.401C89.4399 52.2628 92.974 51.6061 97.4621 52.1533C107.11 53.2916 109.018 59.3768 108.65 61.916C108.281 64.4551 106.265 65.8561 105.593 66.2938C104.921 66.7097 104.704 66.863 104.769 67.1694C104.856 67.6291 105.159 67.6072 105.744 67.5196C106.547 67.3883 110.818 65.4402 110.991 60.7558C111.252 54.7363 105.593 48.1695 95.5541 48.2352ZM21.1429 73.5611C17.9557 77.0853 13.4677 78.4205 11.5597 77.2823C9.49993 76.0784 10.3021 70.8906 14.2265 67.1475C16.6115 64.871 19.712 62.7697 21.75 61.4782C22.2053 61.1936 22.8991 60.7777 23.723 60.2743C23.8531 60.1867 23.9399 60.1429 23.9399 60.1429C24.0916 60.0554 24.2651 59.9459 24.4385 59.8365C25.8912 65.1775 24.5036 69.8618 21.1429 73.5611ZM44.4506 57.56C43.3449 60.2962 41.0033 67.3226 39.594 66.9286C38.3798 66.6003 37.6426 61.2812 39.3555 56.0278C40.2227 53.3791 42.0657 50.2271 43.1497 49.0013C44.9059 47.0312 46.8139 46.3746 47.2909 47.1845C47.8546 48.2352 45.1444 55.8526 44.4506 57.56ZM63.6822 66.8411C63.2052 67.0819 62.7716 67.257 62.5764 67.1256C62.4247 67.0381 62.7716 66.7097 62.7716 66.7097C62.7716 66.7097 65.1782 64.1049 66.1322 62.901C66.6743 62.2005 67.3247 61.3906 68.0185 60.4713V60.734C68.0185 63.886 65.0265 65.9874 63.6822 66.8411ZM78.5124 63.4263C78.1655 63.1637 78.2089 62.3538 79.3797 59.8146C79.835 58.8077 80.8757 57.1222 82.6753 55.5243C82.8921 56.181 83.0222 56.8158 83.0005 57.4068C82.9788 61.3469 80.2036 62.8134 78.5124 63.4263Z" fill="#CF649A"/>
</svg>
