<svg width="139" height="84" viewBox="0 0 139 84" fill="none" xmlns="http://www.w3.org/2000/svg">
<path d="M34.7897 27.2878C38.8734 10.0107 50.8889 0.665372 67.6947 0.037115C81.9091 -0.51261 93.2177 5.06318 101.935 15.508C110.652 25.9527 125.573 29.9579 137.039 16.7645C137.477 16.2351 137.978 15.7604 138.531 15.3509C135.625 30.4291 123.688 40.4812 108.689 41.6592C93.6889 42.8371 82.6159 38.4393 72.9564 27.8375C70.5487 25.1013 67.8347 22.6507 64.8676 20.534C56.072 14.487 44.8419 16.0577 37.6169 24.068L34.7897 27.2878Z" fill="#07B5D3"/>
<path d="M103.427 57.2864C101.228 69.9301 90.8618 81.0817 77.0401 83.1235C61.8049 85.4009 49.0041 81.4743 38.4023 70.0871C34.8683 66.3176 31.4129 62.2339 26.3868 60.3492C16.3347 56.4226 8.24588 59.0926 0 68.9092C3.21982 53.2813 13.8217 44.093 28.1931 42.2868C42.5645 40.4805 55.9149 45.1139 66.1241 56.344C67.9543 58.5667 70.0363 60.5696 72.3282 62.3125C81.752 69.2233 91.0973 68.5165 99.8929 60.5062L103.427 57.2864Z" fill="#07B5D3"/>
</svg>
